<svg width="582" height="402" xmlns="http://www.w3.org/2000/svg">
 <!-- Created with Method Draw - http://github.com/duopixel/Method-Draw/ -->

 <g>
  <title>background</title>
  <rect fill="none" id="canvas_background" height="404" width="584" y="-1" x="-1"/>
  <g display="none" overflow="visible" y="0" x="0" height="100%" width="100%" id="canvasGrid">
   <rect fill="url(#gridpattern)" stroke-width="0" y="1" x="1" height="400" width="580"/>
  </g>
 </g>
 <g>
  <title>Layer 1</title>
  <g stroke="null" id="svg_9">
   <g stroke="null" transform="matrix(0.5940257268294182,0,0,0.5940257268294182,-6645.820543372537,-4583.487933990185) " id="svg_5">
    <path fill="#000000" stroke="null" id="svg_6" d="m11908.215172,7872.987775c-8.9,-10.43 -21.54,-15.79 -34.25,-15.79c-10.33,0 -20.71,3.54 -29.19,10.77c-18.91,16.13 -21.15,44.54 -5.02,63.44c34.13,40 52.93,91.02 52.93,143.67c0,122.14 -99.36,221.5 -221.5,221.5s-221.5,-99.36 -221.5,-221.5c0,-54.52 20,-106.92 56.31,-147.54c16.56,-18.53 14.97,-46.98 -3.56,-63.54c-8.59,-7.68 -19.3,-11.45 -29.98,-11.45c-12.36,0 -24.68,5.07 -33.56,15.01c-51.08,57.15 -79.21,130.84 -79.21,207.52c0,42.03 8.24,82.83 24.5,121.26c4.38,10.36 9.31,20.42 14.74,30.17l-53.11,43.22c-21.42,17.43 -24.65,48.92 -7.22,70.34c9.88,12.14 24.29,18.44 38.81,18.44c11.09,0 22.26,-3.67 31.53,-11.22l52.05,-42.35c26.25,24.05 56.11,43.24 88.95,57.13c38.43,16.26 79.23,24.5 121.26,24.5c42.03,0 82.83,-8.24 121.26,-24.5c37.1,-15.69 70.41,-38.15 99,-66.74s51.05,-61.9 66.74,-99c16.26,-38.43 24.5,-79.23 24.5,-121.26c-0.01,-74.03 -26.46,-145.81 -74.48,-202.08z"/>
    <path fill="#000000" stroke="null" id="svg_7" d="m11480.775172,8095.517775c10.24,96.02 91.72,171.06 190.41,171.06s180.17,-75.04 190.41,-171.06c-41.93,-60.1 -111.57,-99.44 -190.41,-99.44s-148.48,39.34 -190.41,99.44z"/>
    <circle fill="#000000" stroke="null" id="svg_8" r="129" cy="7849.077775" cx="11671.185172"/>
   </g>
  </g>
 </g>
</svg>